<svg id="visual" viewBox="0 0 960 540" width="960" height="540" xmlns="http://www.w3.org/2000/svg" xmlns:xlink="http://www.w3.org/1999/xlink" version="1.1"><path d="M0 44L22.8 45.8C45.7 47.7 91.3 51.3 137 48.7C182.7 46 228.3 37 274 35.2C319.7 33.3 365.3 38.7 411.2 45.8C457 53 503 62 548.8 63.8C594.7 65.7 640.3 60.3 686 55.8C731.7 51.3 777.3 47.7 823 45.8C868.7 44 914.3 44 937.2 44L960 44L960 0L937.2 0C914.3 0 868.7 0 823 0C777.3 0 731.7 0 686 0C640.3 0 594.7 0 548.8 0C503 0 457 0 411.2 0C365.3 0 319.7 0 274 0C228.3 0 182.7 0 137 0C91.3 0 45.7 0 22.8 0L0 0Z" fill="#ffffff"></path><path d="M0 71L22.8 75.5C45.7 80 91.3 89 137 94.5C182.7 100 228.3 102 274 103C319.7 104 365.3 104 411.2 112C457 120 503 136 548.8 137.7C594.7 139.3 640.3 126.7 686 114.2C731.7 101.7 777.3 89.3 823 92.2C868.7 95 914.3 113 937.2 122L960 131L960 42L937.2 42C914.3 42 868.7 42 823 43.8C777.3 45.7 731.7 49.3 686 53.8C640.3 58.3 594.7 63.7 548.8 61.8C503 60 457 51 411.2 43.8C365.3 36.7 319.7 31.3 274 33.2C228.3 35 182.7 44 137 46.7C91.3 49.3 45.7 45.7 22.8 43.8L0 42Z" fill="#bf8fff"></path><path d="M0 125L22.8 132.2C45.7 139.3 91.3 153.7 137 161.8C182.7 170 228.3 172 274 174.8C319.7 177.7 365.3 181.3 411.2 189.3C457 197.3 503 209.7 548.8 203.3C594.7 197 640.3 172 686 160.3C731.7 148.7 777.3 150.3 823 163.8C868.7 177.3 914.3 202.7 937.2 215.3L960 228L960 129L937.2 120C914.3 111 868.7 93 823 90.2C777.3 87.3 731.7 99.7 686 112.2C640.3 124.7 594.7 137.3 548.8 135.7C503 134 457 118 411.2 110C365.3 102 319.7 102 274 101C228.3 100 182.7 98 137 92.5C91.3 87 45.7 78 22.8 73.5L0 69Z" fill="#5500ff"></path><path d="M0 325L22.8 333.2C45.7 341.3 91.3 357.7 137 352.3C182.7 347 228.3 320 274 320.8C319.7 321.7 365.3 350.3 411.2 364.7C457 379 503 379 548.8 363.7C594.7 348.3 640.3 317.7 686 300.5C731.7 283.3 777.3 279.7 823 292.3C868.7 305 914.3 334 937.2 348.5L960 363L960 226L937.2 213.3C914.3 200.7 868.7 175.3 823 161.8C777.3 148.3 731.7 146.7 686 158.3C640.3 170 594.7 195 548.8 201.3C503 207.7 457 195.3 411.2 187.3C365.3 179.3 319.7 175.7 274 172.8C228.3 170 182.7 168 137 159.8C91.3 151.7 45.7 137.3 22.8 130.2L0 123Z" fill="#5500ff"></path><path d="M0 411L22.8 418.3C45.7 425.7 91.3 440.3 137 436.8C182.7 433.3 228.3 411.7 274 409.8C319.7 408 365.3 426 411.2 437.7C457 449.3 503 454.7 548.8 448.3C594.7 442 640.3 424 686 409.7C731.7 395.3 777.3 384.7 823 393.7C868.7 402.7 914.3 431.3 937.2 445.7L960 460L960 361L937.2 346.5C914.3 332 868.7 303 823 290.3C777.3 277.7 731.7 281.3 686 298.5C640.3 315.7 594.7 346.3 548.8 361.7C503 377 457 377 411.2 362.7C365.3 348.3 319.7 319.7 274 318.8C228.3 318 182.7 345 137 350.3C91.3 355.7 45.7 339.3 22.8 331.2L0 323Z" fill="#bf8fff"></path><path d="M0 541L22.8 541C45.7 541 91.3 541 137 541C182.7 541 228.3 541 274 541C319.7 541 365.3 541 411.2 541C457 541 503 541 548.8 541C594.7 541 640.3 541 686 541C731.7 541 777.3 541 823 541C868.7 541 914.3 541 937.2 541L960 541L960 458L937.2 443.7C914.3 429.3 868.7 400.7 823 391.7C777.3 382.7 731.7 393.3 686 407.7C640.3 422 594.7 440 548.8 446.3C503 452.7 457 447.3 411.2 435.7C365.3 424 319.7 406 274 407.8C228.3 409.7 182.7 431.3 137 434.8C91.3 438.3 45.7 423.7 22.8 416.3L0 409Z" fill="#ffffff"></path></svg>